<?xml version="1.0" encoding="UTF-8"?>
<svg id="Layer_2" data-name="Layer 2" xmlns="http://www.w3.org/2000/svg" viewBox="0 0 365.05 326.44">
  <defs>
    <style>
      .cls-1, .cls-2 {
        stroke: #fff;
        stroke-miterlimit: 10;
        stroke-width: 1.05px;
      }

      .cls-1, .cls-3 {
        fill: #fff;
      }

      .cls-2 {
        fill: none;
      }

      .cls-3 {
        stroke-width: 0px;
      }
    </style>
  </defs>
  <g id="Layer_1-2" data-name="Layer 1">
    <path class="cls-3" d="M184.74,316.56l-4.18-.16c.19-4.7.19-10.53,0-15.2l4.18-.17c.19,4.78.19,10.73,0,15.53Z"/>
    <path class="cls-3" d="M95.19,285.44l-3.09-2.81c3.17-3.48,6.91-7.94,9.77-11.64l3.31,2.55c-2.93,3.79-6.75,8.35-9.99,11.9Z"/>
    <path class="cls-3" d="M270.03,285.4c-2.88-3.72-6.62-8.18-9.77-11.64l3.09-2.81c3.22,3.54,7.05,8.1,9.99,11.9l-3.31,2.55Z"/>
    <line class="cls-2" x1="219.98" y1="138.42" x2="365.05" y2="138.42"/>
    <line class="cls-2" y1="138.42" x2="187.76" y2="138.42"/>
    <line class="cls-1" y1="224.6" x2="365.05" y2="224.6"/>
    <polygon class="cls-3" points="182.53 0 187.73 16.02 204.58 16.02 190.95 25.93 196.15 41.95 182.53 32.05 168.9 41.95 174.1 25.93 160.47 16.02 177.32 16.02 182.53 0"/>
    <polygon class="cls-3" points="222.21 16.77 225.57 27.13 236.46 27.13 227.65 33.53 231.02 43.89 222.21 37.48 213.39 43.89 216.76 33.53 207.95 27.13 218.84 27.13 222.21 16.77"/>
    <polygon class="cls-3" points="142.9 16.77 146.26 27.13 157.15 27.13 148.34 33.53 151.71 43.89 142.9 37.48 134.09 43.89 137.45 33.53 128.64 27.13 139.53 27.13 142.9 16.77"/>
    <g>
      <path class="cls-3" d="M105.44,59.17c2.59,1.17,6.6,4.68,6.6,7.02s-5.35,10.7-5.35,14.88c0,.92-1.09,1.92-1.84,1.92-1.17,0-5.93-2.84-5.93-6.6s5.43-10.45,5.43-13.13c0-.67-.58-1.59-1.42-1.59-4.85,0-10.37,8.69-15.97,23.57-3.85,10.2-8.95,20.73-15.22,28.59,8.69,5.68,17.56,12.12,26.17,12.12,4.35,0,5.77-2.09,6.52-2.09s1.42.5,1.42,1.34c0,2.51-5.85,9.53-13.29,9.53-6.94,0-16.39-9.03-25.5-15.88-4.77,4.35-10.03,7.11-15.8,7.11-7.77,0-13.63-6.35-13.63-11.2,0-4.35,5.27-10.12,13.04-10.12,4.26,0,8.61,1.75,13.04,4.18,5.43-8.03,9.78-18.56,12.88-25.83,7.94-18.73,13.12-26.84,22.65-26.84,2.43,0,3.93.5,6.19,3.01ZM59.79,113.93c-3.18-1.76-6.19-2.93-8.86-2.93-4.26,0-8.02,3.01-8.02,5.27s2.34,4.18,5.27,4.18c4.18,0,8.02-2.51,11.62-6.52Z"/>
      <path class="cls-3" d="M120.99,115.1c-.5-.92-.59-2.51-.59-3.6v-1.09s-6.27,9.53-11.54,9.53-10.03-5.6-10.03-10.37c0-8.86,12.96-26.17,21.4-26.17,3.85,0,8.11,3.68,8.11,6.44,0,0,1.25-.83,1.92-.83,1.76,0,5.94,2.76,5.94,3.93s-5.1,7.36-7.1,13.54c-1.09,3.35-1.34,5.18-1.34,6.02,0,1.34,1.25,2.09,2.34,2.09,1.76,0,7.44-6.77,10.87-11.54,1.42-2.01,1.84-2.68,2.26-2.68.67,0,2.01,2.01,2.01,3.26s-.33,2.26-2.09,4.51c-3.18,4.18-8.53,11.29-13.79,11.29-3.68,0-6.94-2.01-8.36-4.35ZM106.78,113.18c0,1.25,1.09,1.92,2.26,1.92,1.92,0,9.11-7.78,12.21-13.21-.25-.42-.5-.67-.5-1.25,0-1.42,3.35-4.18,3.35-8.11,0-1.25-1-2.01-2.09-2.01-3.93,0-15.22,15.72-15.22,22.66Z"/>
      <path class="cls-3" d="M179.6,108.08c3.51-6.35,6.19-15.55,6.19-20.9,0-3.68.5-4.93,1.25-4.93,2.43,0,5.6,4.35,5.6,10.45s-3.18,13.12-7.36,18.56c-.51.69-1.08,1.41-1.74,2.14-1.28,1.43-2.57,2.57-3.74,3.47-.67.62-3.25,2.85-7.14,2.92-.76.01-3.13.04-5.46-1.42-3.29-2.06-4.47-5.98-5.41-9.03,0,0-6.6,11.12-13.63,11.12-4.01,0-8.53-3.85-8.53-10.87s8.03-25.58,11.96-25.58c1.84,0,6.35,2.51,6.35,4.35s-3.26,4.6-7.44,13.96c-3.85,8.61-3.85,10.12-3.85,11.29,0,.92.67,1.59,1.51,1.59,1.84,0,6.6-5.43,12.2-14.05,5.6-8.61,8.11-16.13,9.87-16.13s6.77,1.92,6.77,3.76-7.02,9.86-7.02,20.98c0,3.85,1.34,5.35,2.42,5.35,1.17,0,2.34-.67,3.59-1.92.66-.57,1.48-1.39,2.25-2.52.65-.95,1.07-1.85,1.35-2.58Z"/>
      <path class="cls-3" d="M222.74,124.38c-4.6,10.87-10.12,20.31-16.64,20.31-7.86,0-14.21-5.77-14.21-8.02,0-4.93,12.54-9.45,22.99-14.3,2.34-6.27,3.59-12.12,3.59-12.12,0,0-8.28,9.78-12.12,9.78s-10.03-3.68-10.03-8.44c0-8.19,10.62-24.83,10.62-26.84,0-.5.42-.92,1.92-.92,1.09,0,6.6,2.84,6.6,4.51s-10.28,18.22-10.28,23.74c0,1.25,1,2.01,1.84,2.01,2.09,0,8.03-5.02,13.63-13.46,5.6-8.44,8.28-14.88,8.69-16.22.33-1,.59-1.34,1.76-1.34s5.77,3.09,5.77,4.43-1.42,3.09-3.51,7.77c-1.84,4.18-4.35,12.29-7.44,20.82,6.52-4.6,11.62-9.7,14.04-13.04,1.42-2.01,1.84-2.68,2.26-2.68.67,0,2.01,2.01,2.01,3.26s-.33,2.26-2.09,4.51c-2.76,3.68-9.78,10.7-19.4,16.22ZM211.7,129.65c-7.11,3.01-13.46,5.6-13.46,7.44,0,1.17,2.34,1.67,3.26,1.67,4.1,0,7.52-4.1,10.2-9.11Z"/>
      <path class="cls-3" d="M239.29,106.4c0-8.69,10.37-21.99,16.39-21.99,4.01,0,10.28,3.68,10.28,7.27,0,2.76-2.51,8.28-6.94,12.54-3.51,3.43-10.7,3.59-10.7,3.59,0,0-.17.92-.17,1.92,0,3.34,2.59,5.68,5.52,5.68,5.68,0,12.29-7.61,15.72-12.37,1.42-2.01,1.84-2.68,2.26-2.68.67,0,2.01,2.01,2.01,3.26s-.33,2.26-2.09,4.51c-3.18,4.18-10.12,12.04-18.89,12.04-6.02,0-13.38-5.18-13.38-13.8ZM260.28,92.44c0-.5-.42-.84-1.09-.84-1.92,0-10.03,10.12-10.03,12.29,3.26,0,11.12-8.78,11.12-11.45Z"/>
      <path class="cls-3" d="M270.23,108.66c-.92,0-2.26-1.84-2.26-2.84,0-.83.92-1.92,1.42-2.76,5.94-9.45,8.61-13.88,8.61-15.13,0-.5-2.26-3.09-2.26-5.6s4.43-12.04,6.52-12.04,7.1,2.26,7.1,4.68-4.68,10.87-4.68,13.63,7.94,3.85,7.94,10.78c0,3.01-4.85,10.2-4.85,14.04,0,1.25.75,2.01,1.5,2.01,2.68,0,8.78-7.61,12.21-12.37,1.42-2.01,1.84-2.68,2.26-2.68.67,0,2.01,2.01,2.01,3.26s-.33,2.26-2.09,4.51c-3.18,4.18-8.86,11.7-14.46,11.7-3.76,0-9.36-3.93-9.36-9.78s4.68-12.37,4.68-14.63-2.84-3.76-2.84-3.76c0,0-2.34,5.18-8.61,14.3-1.09,1.59-1.92,2.68-2.84,2.68Z"/>
      <path class="cls-3" d="M295.73,111.09c0-2.17,1.84-4.68,3.76-5.27,3.93-5.6,9.11-12.04,12.37-17.64,1.59-6.1,4.51-12.04,6.52-12.04,3.26,0,6.77,2.59,6.77,5.27,0,2.01-3.6,6.27-6.44,9.95,0,6.69,5.02,7.69,5.02,17.22,0,5.18-4.77,11.54-13.04,11.54s-14.96-4.85-14.96-9.03ZM308.94,114.76c3.09,0,5.27-4.01,5.27-9.11s-.59-12.04-.59-12.04c-2.93,4.6-6.44,9.86-10.53,15.47,0,1.84,3.01,5.68,5.85,5.68Z"/>
    </g>
    <g>
      <path class="cls-3" d="M38.49,186.46v5.39c0,.51-.17.94-.5,1.3-.33.36-.8.53-1.4.53h-3.9v11.92h-8.29v-11.92H3.69c-.6,0-1.15-.19-1.64-.55-.5-.37-.8-.85-.92-1.45l-1-4.77,23.5-31.48h9.05v31.03h5.81ZM24.39,186.46v-14.93c0-.78.03-1.62.09-2.51.06-.89.14-1.81.26-2.78l-14.51,20.21h14.17Z"/>
      <path class="cls-3" d="M95.96,193.27c.58,0,1.06.21,1.45.62l4.11,4.39c-2.03,2.58-4.54,4.54-7.55,5.88s-6.58,2-10.73,2c-3.75,0-7.13-.64-10.12-1.92-3-1.28-5.54-3.06-7.64-5.34-2.1-2.28-3.71-4.99-4.84-8.12-1.13-3.13-1.69-6.55-1.69-10.26,0-2.49.27-4.85.81-7.1.54-2.25,1.33-4.31,2.37-6.2s2.29-3.6,3.75-5.12c1.46-1.52,3.11-2.81,4.96-3.89,1.84-1.07,3.85-1.89,6.03-2.45,2.17-.56,4.5-.85,6.96-.85,1.84,0,3.59.16,5.23.49,1.65.32,3.19.77,4.61,1.35,1.43.58,2.75,1.27,3.96,2.09s2.3,1.71,3.27,2.68l-3.49,4.77c-.21.3-.47.56-.79.8-.32.23-.76.34-1.31.34s-1.11-.19-1.68-.59c-.56-.39-1.26-.83-2.07-1.31s-1.84-.92-3.08-1.31-2.79-.59-4.68-.59c-2.1,0-4.02.38-5.77,1.14-1.75.76-3.26,1.86-4.51,3.3s-2.23,3.21-2.92,5.3c-.69,2.1-1.04,4.48-1.04,7.15s.38,5.1,1.12,7.21c.75,2.11,1.77,3.89,3.08,5.34,1.3,1.45,2.82,2.55,4.56,3.3,1.74.75,3.6,1.12,5.58,1.12,1.17,0,2.24-.06,3.2-.17.96-.11,1.84-.31,2.66-.59s1.59-.64,2.32-1.07c.73-.44,1.46-.99,2.2-1.66.25-.21.52-.38.79-.52s.57-.21.9-.21Z"/>
      <path class="cls-3" d="M130.03,186.32v19.28h-10.37v-19.28l-18.21-30.86h9.12c.9,0,1.62.21,2.16.64s.97.97,1.3,1.64l8.22,15.79c.55,1.06,1.05,2.05,1.5,2.97.45.92.85,1.84,1.19,2.76.32-.92.7-1.85,1.12-2.78.42-.94.9-1.92,1.43-2.96l8.16-15.79c.28-.55.69-1.07,1.24-1.55s1.27-.73,2.14-.73h9.19l-18.21,30.86Z"/>
      <path class="cls-3" d="M183.94,193.27c.58,0,1.06.21,1.45.62l4.11,4.39c-2.03,2.58-4.54,4.54-7.55,5.88s-6.58,2-10.73,2c-3.75,0-7.13-.64-10.12-1.92-3-1.28-5.54-3.06-7.64-5.34-2.1-2.28-3.71-4.99-4.84-8.12-1.13-3.13-1.69-6.55-1.69-10.26,0-2.49.27-4.85.81-7.1.54-2.25,1.33-4.31,2.37-6.2s2.29-3.6,3.75-5.12c1.46-1.52,3.11-2.81,4.96-3.89,1.84-1.07,3.85-1.89,6.03-2.45,2.17-.56,4.5-.85,6.96-.85,1.84,0,3.59.16,5.23.49,1.65.32,3.19.77,4.61,1.35,1.43.58,2.75,1.27,3.96,2.09s2.3,1.71,3.27,2.68l-3.49,4.77c-.21.3-.47.56-.79.8-.32.23-.76.34-1.31.34s-1.11-.19-1.68-.59c-.56-.39-1.26-.83-2.07-1.31s-1.84-.92-3.08-1.31-2.79-.59-4.68-.59c-2.1,0-4.02.38-5.77,1.14-1.75.76-3.26,1.86-4.51,3.3s-2.23,3.21-2.92,5.3c-.69,2.1-1.04,4.48-1.04,7.15s.38,5.1,1.12,7.21c.75,2.11,1.77,3.89,3.08,5.34,1.3,1.45,2.82,2.55,4.56,3.3,1.74.75,3.6,1.12,5.58,1.12,1.17,0,2.24-.06,3.2-.17.96-.11,1.84-.31,2.66-.59s1.59-.64,2.32-1.07c.73-.44,1.46-.99,2.2-1.66.25-.21.52-.38.79-.52s.57-.21.9-.21Z"/>
      <path class="cls-3" d="M225.1,197.17v8.43h-29.75v-50.14h10.37v41.71h19.39Z"/>
      <path class="cls-3" d="M241.86,205.61h-10.44v-50.14h10.44v50.14Z"/>
      <path class="cls-3" d="M279.53,165.07c-.32.53-.65.92-.99,1.16-.33.24-.77.36-1.3.36s-1.05-.18-1.64-.53c-.59-.36-1.27-.74-2.06-1.16-.79-.41-1.68-.8-2.7-1.16-1.01-.36-2.2-.54-3.56-.54-2.4,0-4.19.54-5.39,1.61s-1.8,2.47-1.8,4.2c0,1.11.33,2.02.98,2.75.66.73,1.52,1.35,2.59,1.88s2.29,1,3.65,1.42,2.75.87,4.18,1.36c1.43.5,2.82,1.08,4.18,1.75s2.57,1.51,3.65,2.52c1.07,1.01,1.93,2.25,2.59,3.71.66,1.46.99,3.24.99,5.34,0,2.28-.4,4.42-1.19,6.41-.79,1.99-1.94,3.73-3.44,5.22s-3.35,2.66-5.55,3.51c-2.2.85-4.69,1.28-7.48,1.28-1.59,0-3.17-.16-4.75-.49-1.58-.32-3.1-.77-4.56-1.35-1.46-.57-2.84-1.27-4.13-2.07-1.29-.81-2.42-1.71-3.39-2.7l3.04-4.91c.25-.37.59-.67,1-.92.41-.24.85-.36,1.31-.36.62,0,1.28.23,1.97.69.69.46,1.49.97,2.39,1.52.9.55,1.94,1.06,3.13,1.52s2.61.69,4.27.69c2.42,0,4.29-.55,5.62-1.66s1.99-2.75,1.99-4.94c0-1.27-.33-2.29-.98-3.08-.66-.78-1.52-1.44-2.58-1.97s-2.27-.99-3.63-1.37-2.75-.8-4.18-1.26c-1.43-.46-2.82-1.01-4.18-1.66-1.36-.64-2.57-1.5-3.63-2.56s-1.92-2.37-2.57-3.94c-.66-1.57-.98-3.51-.98-5.84,0-1.87.37-3.67,1.11-5.42.74-1.75,1.82-3.31,3.25-4.67,1.43-1.36,3.18-2.45,5.27-3.28s4.48-1.24,7.17-1.24c3.02,0,5.81.47,8.38,1.4,2.57.93,4.74,2.23,6.52,3.89l-2.56,4.87Z"/>
      <path class="cls-3" d="M325.94,163.83h-14.65v41.78h-10.4v-41.78h-14.65v-8.36h39.71v8.36Z"/>
      <path class="cls-3" d="M359.32,165.07c-.32.53-.65.92-.99,1.16-.33.24-.77.36-1.3.36s-1.05-.18-1.64-.53c-.59-.36-1.27-.74-2.06-1.16-.79-.41-1.68-.8-2.7-1.16-1.01-.36-2.2-.54-3.56-.54-2.4,0-4.19.54-5.39,1.61s-1.8,2.47-1.8,4.2c0,1.11.33,2.02.98,2.75.66.73,1.52,1.35,2.59,1.88s2.29,1,3.65,1.42,2.75.87,4.18,1.36c1.43.5,2.82,1.08,4.18,1.75s2.57,1.51,3.65,2.52c1.07,1.01,1.93,2.25,2.59,3.71.66,1.46.99,3.24.99,5.34,0,2.28-.4,4.42-1.19,6.41-.79,1.99-1.94,3.73-3.44,5.22s-3.35,2.66-5.55,3.51c-2.2.85-4.69,1.28-7.48,1.28-1.59,0-3.17-.16-4.75-.49-1.58-.32-3.1-.77-4.56-1.35-1.46-.57-2.84-1.27-4.13-2.07-1.29-.81-2.42-1.71-3.39-2.7l3.04-4.91c.25-.37.59-.67,1-.92.41-.24.85-.36,1.31-.36.62,0,1.28.23,1.97.69.69.46,1.49.97,2.39,1.52.9.55,1.94,1.06,3.13,1.52,1.19.46,2.61.69,4.27.69,2.42,0,4.29-.55,5.62-1.66s1.99-2.75,1.99-4.94c0-1.27-.33-2.29-.98-3.08-.66-.78-1.52-1.44-2.58-1.97s-2.27-.99-3.63-1.37-2.75-.8-4.18-1.26c-1.43-.46-2.82-1.01-4.18-1.66-1.36-.64-2.57-1.5-3.63-2.56s-1.92-2.37-2.57-3.94c-.66-1.57-.98-3.51-.98-5.84,0-1.87.37-3.67,1.11-5.42.74-1.75,1.82-3.31,3.25-4.67,1.43-1.36,3.18-2.45,5.27-3.28s4.48-1.24,7.17-1.24c3.02,0,5.81.47,8.38,1.4,2.57.93,4.74,2.23,6.52,3.89l-2.56,4.87Z"/>
    </g>
    <path class="cls-3" d="M309.13,224.18c-19.35,53.13-69.61,88.5-126.56,88.5s-107.21-35.36-126.56-88.5h-14.56c20.01,61.18,76.66,102.26,141.12,102.26s121.11-41.09,141.12-102.26h-14.57Z"/>
    <rect class="cls-3" x="182.23" y="224.18" width=".83" height="92.85"/>
    <polygon class="cls-3" points="220.84 224.18 271.72 284.82 272.36 284.28 221.94 224.18 220.84 224.18"/>
    <polygon class="cls-3" points="143.31 224.18 92.97 284.19 93.61 284.73 144.41 224.18 143.31 224.18"/>
  </g>
</svg>